<svg xmlns="http://www.w3.org/2000/svg" viewBox="0 0 64 64" aria-labelledby="title">
  <title>จิบไทย — Duo-Glass</title>
  <defs>
    <linearGradient id="amber" x1="0" y1="0" x2="1" y2="1">
      <stop offset="0" stop-color="#fbbf24"></stop>
      <stop offset="1" stop-color="#d97706"></stop>
    </linearGradient>
    <linearGradient id="burgundy" x1="0" y1="0" x2="1" y2="1">
      <stop offset="0" stop-color="#a21caf"></stop>
      <stop offset="1" stop-color="#7c2d12"></stop>
    </linearGradient>
  </defs>

  <!-- วงแหวนแบดจ์ -->
  <circle cx="32" cy="32" r="28" fill="none" stroke="#0f172a" stroke-opacity=".08" stroke-width="4"></circle>

  <!-- แก้วเบียร์ -->
  <g transform="translate(6,4)" fill="none" stroke="url(#amber)" stroke-width="3" stroke-linecap="round" stroke-linejoin="round">
    <!-- แก้ว -->
    <rect x="8" y="20" rx="3" ry="3" width="18" height="22"></rect>
    <!-- หูแก้ว -->
    <path d="M26 24h4a5 5 0 0 1 0 10h-4"></path>
    <!-- ฟอง -->
    <circle cx="12" cy="18" r="2"></circle>
    <circle cx="18" cy="16" r="2.5"></circle>
    <circle cx="23" cy="18" r="1.8"></circle>
  </g>

  <!-- แก้วไวน์ -->
  <g transform="translate(6,4)" fill="none" stroke="url(#burgundy)" stroke-width="3" stroke-linecap="round" stroke-linejoin="round">
    <!-- ชามแก้ว -->
    <path d="M42 18c0 6-5 10-10 10s-10-4-10-10h20"></path>
    <!-- ก้าน + ฐาน -->
    <path d="M32 28v9M26 40h12"></path>
  </g>
</svg>
